ffmpeg version 4.0.4-0ubuntu1 Copyright (c) 2000-2019 the FFmpeg developers
  built with gcc 8 (Ubuntu 8.2.0-7ubuntu1)
  configuration: --prefix=/usr --extra-version=0ubuntu1 --toolchain=hardened --libdir=/usr/lib/x86_64-linux-gnu --incdir=/usr/include/x86_64-linux-gnu --arch=amd64 --enable-gpl --disable-stripping --enable-avresample --disable-filter=resample --enable-avisynth --enable-gnutls --enable-ladspa --enable-libaom --enable-libass --enable-libbluray --enable-libbs2b --enable-libcaca --enable-libcdio --enable-libcodec2 --enable-libflite --enable-libfontconfig --enable-libfreetype --enable-libfribidi --enable-libgme --enable-libgsm --enable-libjack --enable-libmp3lame --enable-libmysofa --enable-libopenjpeg --enable-libopenmpt --enable-libopus --enable-libpulse --enable-librsvg --enable-librubberband --enable-libshine --enable-libsnappy --enable-libsoxr --enable-libspeex --enable-libssh --enable-libtheora --enable-libtwolame --enable-libvorbis --enable-libvpx --enable-libwavpack --enable-libwebp --enable-libx265 --enable-libxml2 --enable-libxvid --enable-libzmq --enable-libzvbi --enable-lv2 --enable-omx --enable-openal --enable-opengl --enable-sdl2 --enable-libdc1394 --enable-libdrm --enable-libiec61883 --enable-chromaprint --enable-frei0r --enable-libopencv --enable-libx264 --enable-shared
  libavutil      56. 14.100 / 56. 14.100
  libavcodec     58. 18.100 / 58. 18.100
  libavformat    58. 12.100 / 58. 12.100
  libavdevice    58.  3.100 / 58.  3.100
  libavfilter     7. 16.100 /  7. 16.100
  libavresample   4.  0.  0 /  4.  0.  0
  libswscale      5.  1.100 /  5.  1.100
  libswresample   3.  1.100 /  3.  1.100
  libpostproc    55.  1.100 / 55.  1.100
Input #0, rtsp, from 'rtsp://admin:xiriox3000@10.1.1.71:554':
  Metadata:
    title           : Media Presentation
  Duration: N/A, start: 0.373333, bitrate: N/A
    Stream #0:0: Video: h264 (Main), yuvj420p(pc, bt709, progressive), 1280x720, 15 fps, 25 tbr, 90k tbn, 30 tbc
Output #0, mp4, to '/home/xirioxinf/Ext1/2020-01-03/CAM1//CAM1_admin123_admin_2020-01-03_13-36-13.mp4':
  Metadata:
    title           : Media Presentation
    encoder         : Lavf58.12.100
    Stream #0:0: Video: h264 (Main) (avc1 / 0x31637661), yuvj420p(pc, bt709, progressive), 1280x720, q=2-31, 15 fps, 25 tbr, 90k tbn, 90k tbc
Stream mapping:
  Stream #0:0 -> #0:0 (copy)
Press [q] to stop, [?] for help
[mp4 @ 0x5568c10abfc0] Non-monotonous DTS in output stream 0:0; previous: 0, current: -26400; changing to 1. This may result in incorrect timestamps in the output file.
[mp4 @ 0x5568c10abfc0] Non-monotonous DTS in output stream 0:0; previous: 1, current: -19200; changing to 2. This may result in incorrect timestamps in the output file.
[mp4 @ 0x5568c10abfc0] Non-monotonous DTS in output stream 0:0; previous: 2, current: -15600; changing to 3. This may result in incorrect timestamps in the output file.
[mp4 @ 0x5568c10abfc0] Non-monotonous DTS in output stream 0:0; previous: 3, current: -8400; changing to 4. This may result in incorrect timestamps in the output file.
[mp4 @ 0x5568c10abfc0] Non-monotonous DTS in output stream 0:0; previous: 4, current: -4800; changing to 5. This may result in incorrect timestamps in the output file.
[mp4 @ 0x5568c10abfc0] Non-monotonous DTS in output stream 0:0; previous: 5, current: -1200; changing to 6. This may result in incorrect timestamps in the output file.
frame=   37 fps=0.0 q=-1.0 size=       0kB time=00:00:01.98 bitrate=   0.2kbits/s speed=3.95x    frame=   45 fps= 42 q=-1.0 size=       0kB time=00:00:02.54 bitrate=   0.2kbits/s speed= 2.4x    frame=   53 fps= 34 q=-1.0 size=       0kB time=00:00:03.06 bitrate=   0.1kbits/s speed=1.94x    frame=   61 fps= 29 q=-1.0 size=     256kB time=00:00:03.58 bitrate= 585.0kbits/s speed=1.71x    frame=   69 fps= 26 q=-1.0 size=     256kB time=00:00:04.14 bitrate= 506.0kbits/s speed=1.56x    frame=   77 fps= 24 q=-1.0 size=     256kB time=00:00:04.66 bitrate= 449.6kbits/s speed=1.47x    frame=   85 fps= 23 q=-1.0 size=     256kB time=00:00:05.18 bitrate= 404.5kbits/s speed= 1.4x    frame=   93 fps= 22 q=-1.0 size=     256kB time=00:00:05.74 bitrate= 365.1kbits/s speed=1.35x    frame=  101 fps= 21 q=-1.0 size=     256kB time=00:00:06.26 bitrate= 334.8kbits/s speed=1.31x    frame=  109 fps= 21 q=-1.0 size=     256kB time=00:00:06.78 bitrate= 309.1kbits/s speed=1.28x    frame=  117 fps= 20 q=-1.0 size=     256kB time=00:00:07.34 bitrate= 285.5kbits/s speed=1.25x    frame=  125 fps= 20 q=-1.0 size=     512kB time=00:00:07.86 bitrate= 533.3kbits/s speed=1.23x    frame=  133 fps= 19 q=-1.0 size=     512kB time=00:00:08.38 bitrate= 500.2kbits/s speed=1.22x    frame=  141 fps= 19 q=-1.0 size=     512kB time=00:00:08.94 bitrate= 468.9kbits/s speed= 1.2x    frame=  149 fps= 19 q=-1.0 size=     512kB time=00:00:09.46 bitrate= 443.1kbits/s speed=1.19x    frame=  157 fps= 18 q=-1.0 size=     512kB time=00:00:09.98 bitrate= 420.1kbits/s speed=1.18x    frame=  165 fps= 18 q=-1.0 size=     512kB time=00:00:10.54 bitrate= 397.8kbits/s speed=1.16x    frame=  173 fps= 18 q=-1.0 size=     512kB time=00:00:11.06 bitrate= 379.1kbits/s speed=1.16x    frame=  181 fps= 18 q=-1.0 size=     768kB time=00:00:11.58 bitrate= 543.1kbits/s speed=1.15x    frame=  189 fps= 18 q=-1.0 size=     768kB time=00:00:12.14 bitrate= 518.0kbits/s speed=1.14x    frame=  197 fps= 18 q=-1.0 size=     768kB time=00:00:12.66 bitrate= 496.8kbits/s speed=1.13x    frame=  205 fps= 18 q=-1.0 size=     768kB time=00:00:13.18 bitrate= 477.2kbits/s speed=1.13x    frame=  213 fps= 17 q=-1.0 size=     768kB time=00:00:13.74 bitrate= 457.8kbits/s speed=1.12x    frame=  221 fps= 17 q=-1.0 size=     768kB time=00:00:14.26 bitrate= 441.1kbits/s speed=1.12x    frame=  229 fps= 17 q=-1.0 size=    1024kB time=00:00:14.78 bitrate= 567.4kbits/s speed=1.11x    frame=  237 fps= 17 q=-1.0 size=    1024kB time=00:00:15.34 bitrate= 546.7kbits/s speed=1.11x    frame=  245 fps= 17 q=-1.0 size=    1024kB time=00:00:15.86 bitrate= 528.8kbits/s speed= 1.1x    frame=  253 fps= 17 q=-1.0 size=    1024kB time=00:00:16.38 bitrate= 512.0kbits/s speed= 1.1x    frame=  261 fps= 17 q=-1.0 size=    1024kB time=00:00:16.94 bitrate= 495.1kbits/s speed= 1.1x    frame=  269 fps= 17 q=-1.0 size=    1024kB time=00:00:17.46 bitrate= 480.3kbits/s speed=1.09x    frame=  277 fps= 17 q=-1.0 size=    1024kB time=00:00:17.98 bitrate= 466.5kbits/s speed=1.09x    frame=  285 fps= 17 q=-1.0 size=    1024kB time=00:00:18.54 bitrate= 452.4kbits/s speed=1.09x    frame=  293 fps= 17 q=-1.0 size=    1280kB time=00:00:19.06 bitrate= 550.0kbits/s speed=1.09x    frame=  301 fps= 17 q=-1.0 size=    1280kB time=00:00:19.58 bitrate= 535.4kbits/s speed=1.08x    frame=  309 fps= 17 q=-1.0 size=    1280kB time=00:00:20.14 bitrate= 520.5kbits/s speed=1.08x    frame=  317 fps= 17 q=-1.0 size=    1280kB time=00:00:20.66 bitrate= 507.4kbits/s speed=1.08x    frame=  325 fps= 17 q=-1.0 size=    1280kB time=00:00:21.18 bitrate= 495.0kbits/s speed=1.08x    frame=  333 fps= 16 q=-1.0 size=    1280kB time=00:00:21.74 bitrate= 482.2kbits/s speed=1.07x    frame=  341 fps= 16 q=-1.0 size=    1280kB time=00:00:22.26 bitrate= 471.0kbits/s speed=1.07x    frame=  349 fps= 16 q=-1.0 size=    1280kB time=00:00:22.78 bitrate= 460.2kbits/s speed=1.07x    frame=  357 fps= 16 q=-1.0 size=    1536kB time=00:00:23.34 bitrate= 539.0kbits/s speed=1.07x    frame=  365 fps= 16 q=-1.0 size=    1536kB time=00:00:23.86 bitrate= 527.3kbits/s speed=1.07x    frame=  373 fps= 16 q=-1.0 size=    1536kB time=00:00:24.38 bitrate= 516.1kbits/s speed=1.07x    frame=  381 fps= 16 q=-1.0 size=    1536kB time=00:00:24.94 bitrate= 504.5kbits/s speed=1.06x    frame=  389 fps= 16 q=-1.0 size=    1536kB time=00:00:25.46 bitrate= 494.2kbits/s speed=1.06x    frame=  397 fps= 16 q=-1.0 size=    1536kB time=00:00:25.98 bitrate= 484.3kbits/s speed=1.06x    frame=  405 fps= 16 q=-1.0 size=    1536kB time=00:00:26.54 bitrate= 474.1kbits/s speed=1.06x    frame=  413 fps= 16 q=-1.0 size=    1536kB time=00:00:27.06 bitrate= 465.0kbits/s speed=1.06x    frame=  421 fps= 16 q=-1.0 size=    1792kB time=00:00:27.58 bitrate= 532.2kbits/s speed=1.06x    frame=  429 fps= 16 q=-1.0 size=    1792kB time=00:00:28.14 bitrate= 521.6kbits/s speed=1.06x    frame=  437 fps= 16 q=-1.0 size=    1792kB time=00:00:28.66 bitrate= 512.2kbits/s speed=1.06x    frame=  445 fps= 16 q=-1.0 size=    1792kB time=00:00:29.18 bitrate= 503.0kbits/s speed=1.05x    frame=  453 fps= 16 q=-1.0 size=    1792kB time=00:00:29.74 bitrate= 493.6kbits/s speed=1.05x    frame=  461 fps= 16 q=-1.0 size=    1792kB time=00:00:30.26 bitrate= 485.1kbits/s speed=1.05x    frame=  469 fps= 16 q=-1.0 size=    1792kB time=00:00:30.78 bitrate= 476.9kbits/s speed=1.05x    frame=  477 fps= 16 q=-1.0 size=    1792kB time=00:00:31.34 bitrate= 468.4kbits/s speed=1.05x    frame=  485 fps= 16 q=-1.0 size=    1792kB time=00:00:31.86 bitrate= 460.7kbits/s speed=1.05x    frame=  493 fps= 16 q=-1.0 size=    2048kB time=00:00:32.38 bitrate= 518.1kbits/s speed=1.05x    frame=  501 fps= 16 q=-1.0 size=    2048kB time=00:00:32.94 bitrate= 509.3kbits/s speed=1.05x    frame=  509 fps= 16 q=-1.0 size=    2048kB time=00:00:33.46 bitrate= 501.4kbits/s speed=1.05x    frame=  517 fps= 16 q=-1.0 size=    2048kB time=00:00:33.98 bitrate= 493.7kbits/s speed=1.05x    frame=  525 fps= 16 q=-1.0 size=    2048kB time=00:00:34.54 bitrate= 485.7kbits/s speed=1.05x    frame=  533 fps= 16 q=-1.0 size=    2048kB time=00:00:35.06 bitrate= 478.5kbits/s speed=1.04x    frame=  541 fps= 16 q=-1.0 size=    2048kB time=00:00:35.58 bitrate= 471.5kbits/s speed=1.04x    frame=  549 fps= 16 q=-1.0 size=    2304kB time=00:00:36.14 bitrate= 522.2kbits/s speed=1.04x    frame=  557 fps= 16 q=-1.0 size=    2304kB time=00:00:36.66 bitrate= 514.8kbits/s speed=1.04x    frame=  565 fps= 16 q=-1.0 size=    2304kB time=00:00:37.18 bitrate= 507.6kbits/s speed=1.04x    frame=  573 fps= 16 q=-1.0 size=    2304kB time=00:00:37.74 bitrate= 500.1kbits/s speed=1.04x    frame=  581 fps= 16 q=-1.0 size=    2304kB time=00:00:38.26 bitrate= 493.3kbits/s speed=1.04x    frame=  589 fps= 16 q=-1.0 size=    2304kB time=00:00:38.78 bitrate= 486.7kbits/s speed=1.04x    frame=  597 fps= 16 q=-1.0 size=    2304kB time=00:00:39.34 bitrate= 479.8kbits/s speed=1.04x    frame=  605 fps= 16 q=-1.0 size=    2560kB time=00:00:39.86 bitrate= 526.1kbits/s speed=1.04x    frame=  613 fps= 16 q=-1.0 size=    2560kB time=00:00:40.38 bitrate= 519.3kbits/s speed=1.04x    frame=  621 fps= 16 q=-1.0 size=    2560kB time=00:00:40.94 bitrate= 512.2kbits/s speed=1.04x    frame=  629 fps= 16 q=-1.0 size=    2560kB time=00:00:41.46 bitrate= 505.8kbits/s speed=1.04x    frame=  637 fps= 16 q=-1.0 size=    2560kB time=00:00:41.98 bitrate= 499.5kbits/s speed=1.04x    frame=  645 fps= 16 q=-1.0 size=    2560kB time=00:00:42.54 bitrate= 493.0kbits/s speed=1.04x    frame=  653 fps= 16 q=-1.0 size=    2560kB time=00:00:43.06 bitrate= 487.0kbits/s speed=1.04x    frame=  661 fps= 16 q=-1.0 size=    2560kB time=00:00:43.58 bitrate= 481.2kbits/s speed=1.04x    frame=  669 fps= 16 q=-1.0 size=    2816kB time=00:00:44.14 bitrate= 522.6kbits/s speed=1.04x    frame=  677 fps= 16 q=-1.0 size=    2816kB time=00:00:44.66 bitrate= 516.5kbits/s speed=1.04x    frame=  685 fps= 16 q=-1.0 size=    2816kB time=00:00:45.18 bitrate= 510.6kbits/s speed=1.03x    frame=  693 fps= 16 q=-1.0 size=    2816kB time=00:00:45.74 bitrate= 504.3kbits/s speed=1.03x    frame=  701 fps= 16 q=-1.0 size=    2816kB time=00:00:46.26 bitrate= 498.7kbits/s speed=1.03x    frame=  709 fps= 16 q=-1.0 size=    2816kB time=00:00:46.78 bitrate= 493.1kbits/s speed=1.03x    frame=  717 fps= 16 q=-1.0 size=    2816kB time=00:00:47.34 bitrate= 487.3kbits/s speed=1.03x    frame=  725 fps= 16 q=-1.0 size=    2816kB time=00:00:47.86 bitrate= 482.0kbits/s speed=1.03x    frame=  733 fps= 16 q=-1.0 size=    3072kB time=00:00:48.38 bitrate= 520.2kbits/s speed=1.03x    frame=  741 fps= 16 q=-1.0 size=    3072kB time=00:00:48.94 bitrate= 514.2kbits/s speed=1.03x    frame=  749 fps= 16 q=-1.0 size=    3072kB time=00:00:49.46 bitrate= 508.8kbits/s speed=1.03x    frame=  757 fps= 16 q=-1.0 size=    3072kB time=00:00:49.98 bitrate= 503.5kbits/s speed=1.03x    frame=  765 fps= 16 q=-1.0 size=    3072kB time=00:00:50.54 bitrate= 497.9kbits/s speed=1.03x    frame=  773 fps= 16 q=-1.0 size=    3072kB time=00:00:51.06 bitrate= 492.9kbits/s speed=1.03x    frame=  781 fps= 16 q=-1.0 size=    3072kB time=00:00:51.58 bitrate= 487.9kbits/s speed=1.03x    frame=  789 fps= 16 q=-1.0 size=    3072kB time=00:00:52.14 bitrate= 482.7kbits/s speed=1.03x    frame=  797 fps= 16 q=-1.0 size=    3328kB time=00:00:52.66 bitrate= 517.7kbits/s speed=1.03x    frame=  805 fps= 16 q=-1.0 size=    3328kB time=00:00:53.18 bitrate= 512.6kbits/s speed=1.03x    frame=  813 fps= 16 q=-1.0 size=    3328kB time=00:00:53.74 bitrate= 507.3kbits/s speed=1.03x    frame=  821 fps= 16 q=-1.0 size=    3328kB time=00:00:54.26 bitrate= 502.5kbits/s speed=1.03x    frame=  829 fps= 16 q=-1.0 size=    3328kB time=00:00:54.78 bitrate= 497.7kbits/s speed=1.03x    frame=  837 fps= 16 q=-1.0 size=    3328kB time=00:00:55.34 bitrate= 492.6kbits/s speed=1.03x    frame=  845 fps= 16 q=-1.0 size=    3328kB time=00:00:55.86 bitrate= 488.1kbits/s speed=1.03x    frame=  853 fps= 16 q=-1.0 size=    3328kB time=00:00:56.38 bitrate= 483.6kbits/s speed=1.03x    frame=  861 fps= 16 q=-1.0 size=    3584kB time=00:00:56.94 bitrate= 515.6kbits/s speed=1.03x    frame=  869 fps= 16 q=-1.0 size=    3584kB time=00:00:57.46 bitrate= 511.0kbits/s speed=1.03x    frame=  877 fps= 16 q=-1.0 size=    3584kB time=00:00:57.98 bitrate= 506.4kbits/s speed=1.03x    frame=  885 fps= 16 q=-1.0 size=    3584kB time=00:00:58.54 bitrate= 501.5kbits/s speed=1.03x    frame=  893 fps= 16 q=-1.0 size=    3584kB time=00:00:59.06 bitrate= 497.1kbits/s speed=1.03x    frame=  901 fps= 16 q=-1.0 size=    3584kB time=00:00:59.58 bitrate= 492.8kbits/s speed=1.03x    frame=  909 fps= 16 q=-1.0 size=    3840kB time=00:01:00.14 bitrate= 523.1kbits/s speed=1.03x    frame=  917 fps= 16 q=-1.0 size=    3840kB time=00:01:00.66 bitrate= 518.6kbits/s speed=1.03x    frame=  925 fps= 16 q=-1.0 size=    3840kB time=00:01:01.18 bitrate= 514.2kbits/s speed=1.03x    frame=  933 fps= 16 q=-1.0 size=    3840kB time=00:01:01.74 bitrate= 509.5kbits/s speed=1.03x    frame=  941 fps= 15 q=-1.0 size=    3840kB time=00:01:02.26 bitrate= 505.3kbits/s speed=1.03x    frame=  949 fps= 15 q=-1.0 size=    3840kB time=00:01:02.78 bitrate= 501.1kbits/s speed=1.03x    frame=  957 fps= 15 q=-1.0 size=    3840kB time=00:01:03.34 bitrate= 496.6kbits/s speed=1.03x    frame=  965 fps= 15 q=-1.0 size=    4096kB time=00:01:03.85 bitrate= 525.4kbits/s speed=1.02x    frame=  973 fps= 15 q=-1.0 size=    4096kB time=00:01:04.37 bitrate= 521.2kbits/s speed=1.02x    frame=  981 fps= 15 q=-1.0 size=    4096kB time=00:01:04.93 bitrate= 516.7kbits/s speed=1.02x    frame=  989 fps= 15 q=-1.0 size=    4096kB time=00:01:05.45 bitrate= 512.6kbits/s speed=1.02x    frame=  997 fps= 15 q=-1.0 size=    4096kB time=00:01:05.97 bitrate= 508.6kbits/s speed=1.02x    frame= 1005 fps= 15 q=-1.0 size=    4096kB time=00:01:06.53 bitrate= 504.3kbits/s speed=1.02x    frame= 1013 fps= 15 q=-1.0 size=    4096kB time=00:01:07.05 bitrate= 500.4kbits/s speed=1.02x    frame= 1021 fps= 15 q=-1.0 size=    4096kB time=00:01:07.57 bitrate= 496.5kbits/s speed=1.02x    frame= 1029 fps= 15 q=-1.0 size=    4352kB time=00:01:08.13 bitrate= 523.2kbits/s speed=1.02x    frame= 1037 fps= 15 q=-1.0 size=    4352kB time=00:01:08.65 bitrate= 519.3kbits/s speed=1.02x    frame= 1045 fps= 15 q=-1.0 size=    4352kB time=00:01:09.17 bitrate= 515.4kbits/s speed=1.02x    frame= 1053 fps= 15 q=-1.0 size=    4352kB time=00:01:09.73 bitrate= 511.2kbits/s speed=1.02x    frame= 1061 fps= 15 q=-1.0 size=    4352kB time=00:01:10.25 bitrate= 507.4kbits/s speed=1.02x    frame= 1069 fps= 15 q=-1.0 size=    4352kB time=00:01:10.77 bitrate= 503.7kbits/s speed=1.02x    frame= 1077 fps= 15 q=-1.0 size=    4352kB time=00:01:11.33 bitrate= 499.7kbits/s speed=1.02x    frame= 1085 fps= 15 q=-1.0 size=    4352kB time=00:01:11.85 bitrate= 496.1kbits/s speed=1.02x    frame= 1093 fps= 15 q=-1.0 size=    4608kB time=00:01:12.37 bitrate= 521.5kbits/s speed=1.02x    frame= 1101 fps= 15 q=-1.0 size=    4608kB time=00:01:12.93 bitrate= 517.5kbits/s speed=1.02x    frame= 1109 fps= 15 q=-1.0 size=    4608kB time=00:01:13.45 bitrate= 513.9kbits/s speed=1.02x    frame= 1117 fps= 15 q=-1.0 size=    4608kB time=00:01:13.97 bitrate= 510.3kbits/s speed=1.02x    frame= 1125 fps= 15 q=-1.0 size=    4608kB time=00:01:14.53 bitrate= 506.4kbits/s speed=1.02x    frame= 1133 fps= 15 q=-1.0 size=    4608kB time=00:01:15.05 bitrate= 502.9kbits/s speed=1.02x    frame= 1141 fps= 15 q=-1.0 size=    4608kB time=00:01:15.57 bitrate= 499.5kbits/s speed=1.02x    frame= 1149 fps= 15 q=-1.0 size=    4608kB time=00:01:16.13 bitrate= 495.8kbits/s speed=1.02x    frame= 1157 fps= 15 q=-1.0 size=    4864kB time=00:01:16.65 bitrate= 519.8kbits/s speed=1.02x    frame= 1165 fps= 15 q=-1.0 size=    4864kB time=00:01:17.17 bitrate= 516.3kbits/s speed=1.02x    frame= 1173 fps= 15 q=-1.0 size=    4864kB time=00:01:17.73 bitrate= 512.6kbits/s speed=1.02x    frame= 1181 fps= 15 q=-1.0 size=    4864kB time=00:01:18.25 bitrate= 509.2kbits/s speed=1.02x    frame= 1189 fps= 15 q=-1.0 size=    4864kB time=00:01:18.77 bitrate= 505.8kbits/s speed=1.02x    frame= 1197 fps= 15 q=-1.0 size=    4864kB time=00:01:19.33 bitrate= 502.2kbits/s speed=1.02x    frame= 1205 fps= 15 q=-1.0 size=    4864kB time=00:01:19.85 bitrate= 499.0kbits/s speed=1.02x    frame= 1213 fps= 15 q=-1.0 size=    4864kB time=00:01:20.37 bitrate= 495.7kbits/s speed=1.02x    frame= 1221 fps= 15 q=-1.0 size=    4864kB time=00:01:20.93 bitrate= 492.3kbits/s speed=1.02x    frame= 1229 fps= 15 q=-1.0 size=    5120kB time=00:01:21.45 bitrate= 514.9kbits/s speed=1.02x    frame= 1237 fps= 15 q=-1.0 size=    5120kB time=00:01:21.97 bitrate= 511.6kbits/s speed=1.02x    frame= 1245 fps= 15 q=-1.0 size=    5120kB time=00:01:22.53 bitrate= 508.2kbits/s speed=1.02x    frame= 1253 fps= 15 q=-1.0 size=    5120kB time=00:01:23.05 bitrate= 505.0kbits/s speed=1.02x    frame= 1261 fps= 15 q=-1.0 size=    5120kB time=00:01:23.57 bitrate= 501.8kbits/s speed=1.02x    frame= 1269 fps= 15 q=-1.0 size=    5120kB time=00:01:24.13 bitrate= 498.5kbits/s speed=1.02x    frame= 1277 fps= 15 q=-1.0 size=    5120kB time=00:01:24.65 bitrate= 495.4kbits/s speed=1.02x    frame= 1285 fps= 15 q=-1.0 size=    5120kB time=00:01:25.17 bitrate= 492.4kbits/s speed=1.02x    frame= 1293 fps= 15 q=-1.0 size=    5376kB time=00:01:25.73 bitrate= 513.7kbits/s speed=1.02x    frame= 1301 fps= 15 q=-1.0 size=    5376kB time=00:01:26.25 bitrate= 510.6kbits/s speed=1.02x    frame= 1309 fps= 15 q=-1.0 size=    5376kB time=00:01:26.77 bitrate= 507.5kbits/s speed=1.02x    frame= 1317 fps= 15 q=-1.0 size=    5376kB time=00:01:27.33 bitrate= 504.3kbits/s speed=1.02x    frame= 1325 fps= 15 q=-1.0 size=    5376kB time=00:01:27.85 bitrate= 501.3kbits/s speed=1.02x    frame= 1333 fps= 15 q=-1.0 size=    5376kB time=00:01:28.37 bitrate= 498.3kbits/s speed=1.02x    frame= 1341 fps= 15 q=-1.0 size=    5376kB time=00:01:28.93 bitrate= 495.2kbits/s speed=1.02x    frame= 1349 fps= 15 q=-1.0 size=    5376kB time=00:01:29.45 bitrate= 492.3kbits/s speed=1.02x    frame= 1357 fps= 15 q=-1.0 size=    5632kB time=00:01:29.97 bitrate= 512.8kbits/s speed=1.02x    frame= 1365 fps= 15 q=-1.0 size=    5632kB time=00:01:30.53 bitrate= 509.6kbits/s speed=1.02x    frame= 1373 fps= 15 q=-1.0 size=    5632kB time=00:01:31.05 bitrate= 506.7kbits/s speed=1.02x    frame= 1381 fps= 15 q=-1.0 size=    5632kB time=00:01:31.57 bitrate= 503.8kbits/s speed=1.02x    frame= 1389 fps= 15 q=-1.0 size=    5632kB time=00:01:32.13 bitrate= 500.7kbits/s speed=1.02x    frame= 1397 fps= 15 q=-1.0 size=    5632kB time=00:01:32.65 bitrate= 497.9kbits/s speed=1.02x    frame= 1405 fps= 15 q=-1.0 size=    5632kB time=00:01:33.17 bitrate= 495.2kbits/s speed=1.02x    frame= 1413 fps= 15 q=-1.0 size=    5888kB time=00:01:33.73 bitrate= 514.6kbits/s speed=1.02x    frame= 1421 fps= 15 q=-1.0 size=    5888kB time=00:01:34.25 bitrate= 511.7kbits/s speed=1.02x    frame= 1429 fps= 15 q=-1.0 size=    5888kB time=00:01:34.77 bitrate= 508.9kbits/s speed=1.02x    frame= 1437 fps= 15 q=-1.0 size=    5888kB time=00:01:35.33 bitrate= 505.9kbits/s speed=1.02x    frame= 1445 fps= 15 q=-1.0 size=    5888kB time=00:01:35.85 bitrate= 503.2kbits/s speed=1.02x    frame= 1453 fps= 15 q=-1.0 size=    5888kB time=00:01:36.37 bitrate= 500.5kbits/s speed=1.02x    frame= 1461 fps= 15 q=-1.0 size=    5888kB time=00:01:36.93 bitrate= 497.6kbits/s speed=1.02x    frame= 1469 fps= 15 q=-1.0 size=    6144kB time=00:01:37.45 bitrate= 516.5kbits/s speed=1.02x    frame= 1477 fps= 15 q=-1.0 size=    6144kB time=00:01:37.97 bitrate= 513.7kbits/s speed=1.02x    frame= 1485 fps= 15 q=-1.0 size=    6144kB time=00:01:38.53 bitrate= 510.8kbits/s speed=1.02x    frame= 1493 fps= 15 q=-1.0 size=    6144kB time=00:01:39.05 bitrate= 508.1kbits/s speed=1.02x    frame= 1501 fps= 15 q=-1.0 size=    6144kB time=00:01:39.57 bitrate= 505.5kbits/s speed=1.02x    frame= 1509 fps= 15 q=-1.0 size=    6144kB time=00:01:40.13 bitrate= 502.6kbits/s speed=1.02x    frame= 1517 fps= 15 q=-1.0 size=    6144kB time=00:01:40.65 bitrate= 500.0kbits/s speed=1.02x    frame= 1525 fps= 15 q=-1.0 size=    6144kB time=00:01:41.17 bitrate= 497.5kbits/s speed=1.02x    frame= 1533 fps= 15 q=-1.0 size=    6144kB time=00:01:41.73 bitrate= 494.7kbits/s speed=1.02x    frame= 1541 fps= 15 q=-1.0 size=    6400kB time=00:01:42.25 bitrate= 512.7kbits/s speed=1.02x    frame= 1549 fps= 15 q=-1.0 size=    6400kB time=00:01:42.77 bitrate= 510.1kbits/s speed=1.02x    frame= 1557 fps= 15 q=-1.0 size=    6400kB time=00:01:43.33 bitrate= 507.4kbits/s speed=1.02x    frame= 1565 fps= 15 q=-1.0 size=    6400kB time=00:01:43.85 bitrate= 504.8kbits/s speed=1.02x    frame= 1573 fps= 15 q=-1.0 size=    6400kB time=00:01:44.37 bitrate= 502.3kbits/s speed=1.02x    frame= 1581 fps= 15 q=-1.0 size=    6400kB time=00:01:44.93 bitrate= 499.6kbits/s speed=1.02x    frame= 1589 fps= 15 q=-1.0 size=    6400kB time=00:01:45.45 bitrate= 497.2kbits/s speed=1.02x    frame= 1597 fps= 15 q=-1.0 size=    6400kB time=00:01:45.97 bitrate= 494.7kbits/s speed=1.02x    frame= 1605 fps= 15 q=-1.0 size=    6400kB time=00:01:46.53 bitrate= 492.1kbits/s speed=1.02x    frame= 1613 fps= 15 q=-1.0 size=    6656kB time=00:01:47.05 bitrate= 509.3kbits/s speed=1.01x    frame= 1621 fps= 15 q=-1.0 size=    6656kB time=00:01:47.57 bitrate= 506.9kbits/s speed=1.01x    frame= 1629 fps= 15 q=-1.0 size=    6656kB time=00:01:48.13 bitrate= 504.2kbits/s speed=1.01x    frame= 1637 fps= 15 q=-1.0 size=    6656kB time=00:01:48.65 bitrate= 501.8kbits/s speed=1.01x    frame= 1645 fps= 15 q=-1.0 size=    6656kB time=00:01:49.17 bitrate= 499.4kbits/s speed=1.01x    frame= 1653 fps= 15 q=-1.0 size=    6656kB time=00:01:49.73 bitrate= 496.9kbits/s speed=1.01x    frame= 1661 fps= 15 q=-1.0 size=    6656kB time=00:01:50.25 bitrate= 494.5kbits/s speed=1.01x    frame= 1669 fps= 15 q=-1.0 size=    6656kB time=00:01:50.77 bitrate= 492.2kbits/s speed=1.01x    frame= 1677 fps= 15 q=-1.0 size=    6912kB time=00:01:51.33 bitrate= 508.6kbits/s speed=1.01x    frame= 1685 fps= 15 q=-1.0 size=    6912kB time=00:01:51.85 bitrate= 506.2kbits/s speed=1.01x    frame= 1693 fps= 15 q=-1.0 size=    6912kB time=00:01:52.37 bitrate= 503.9kbits/s speed=1.01x    frame= 1701 fps= 15 q=-1.0 size=    6912kB time=00:01:52.93 bitrate= 501.4kbits/s speed=1.01x    frame= 1709 fps= 15 q=-1.0 size=    6912kB time=00:01:53.45 bitrate= 499.1kbits/s speed=1.01x    frame= 1717 fps= 15 q=-1.0 size=    6912kB time=00:01:53.97 bitrate= 496.8kbits/s speed=1.01x    frame= 1725 fps= 15 q=-1.0 size=    6912kB time=00:01:54.53 bitrate= 494.4kbits/s speed=1.01x    frame= 1733 fps= 15 q=-1.0 size=    7168kB time=00:01:55.05 bitrate= 510.4kbits/s speed=1.01x    frame= 1741 fps= 15 q=-1.0 size=    7168kB time=00:01:55.57 bitrate= 508.1kbits/s speed=1.01x    frame= 1749 fps= 15 q=-1.0 size=    7168kB time=00:01:56.13 bitrate= 505.6kbits/s speed=1.01x    frame= 1757 fps= 15 q=-1.0 size=    7168kB time=00:01:56.65 bitrate= 503.4kbits/s speed=1.01x    frame= 1765 fps= 15 q=-1.0 size=    7168kB time=00:01:57.17 bitrate= 501.1kbits/s speed=1.01x    frame= 1773 fps= 15 q=-1.0 size=    7168kB time=00:01:57.73 bitrate= 498.8kbits/s speed=1.01x    frame= 1781 fps= 15 q=-1.0 size=    7168kB time=00:01:58.25 bitrate= 496.6kbits/s speed=1.01x    frame= 1789 fps= 15 q=-1.0 size=    7168kB time=00:01:58.77 bitrate= 494.4kbits/s speed=1.01x    frame= 1797 fps= 15 q=-1.0 size=    7424kB time=00:01:59.33 bitrate= 509.6kbits/s speed=1.01x    frame= 1805 fps= 15 q=-1.0 size=    7424kB time=00:01:59.85 bitrate= 507.4kbits/s speed=1.01x    frame= 1813 fps= 15 q=-1.0 size=    7424kB time=00:02:00.37 bitrate= 505.2kbits/s speed=1.01x    frame= 1821 fps= 15 q=-1.0 size=    7424kB time=00:02:00.93 bitrate= 502.9kbits/s speed=1.01x    frame= 1829 fps= 15 q=-1.0 size=    7424kB time=00:02:01.45 bitrate= 500.7kbits/s speed=1.01x    frame= 1837 fps= 15 q=-1.0 size=    7424kB time=00:02:01.97 bitrate= 498.6kbits/s speed=1.01x    frame= 1845 fps= 15 q=-1.0 size=    7424kB time=00:02:02.53 bitrate= 496.3kbits/s speed=1.01x    frame= 1853 fps= 15 q=-1.0 size=    7680kB time=00:02:03.05 bitrate= 511.3kbits/s speed=1.01x    frame= 1861 fps= 15 q=-1.0 size=    7680kB time=00:02:03.57 bitrate= 509.1kbits/s speed=1.01x    frame= 1869 fps= 15 q=-1.0 size=    7680kB time=00:02:04.13 bitrate= 506.8kbits/s speed=1.01x    frame= 1877 fps= 15 q=-1.0 size=    7680kB time=00:02:04.65 bitrate= 504.7kbits/s speed=1.01x    frame= 1885 fps= 15 q=-1.0 size=    7680kB time=00:02:05.17 bitrate= 502.6kbits/s speed=1.01x    frame= 1893 fps= 15 q=-1.0 size=    7680kB time=00:02:05.73 bitrate= 500.4kbits/s speed=1.01x    frame= 1901 fps= 15 q=-1.0 size=    7680kB time=00:02:06.25 bitrate= 498.3kbits/s speed=1.01x    frame= 1909 fps= 15 q=-1.0 size=    7936kB time=00:02:06.77 bitrate= 512.8kbits/s speed=1.01x    frame= 1917 fps= 15 q=-1.0 size=    7936kB time=00:02:07.33 bitrate= 510.6kbits/s speed=1.01x    frame= 1925 fps= 15 q=-1.0 size=    7936kB time=00:02:07.85 bitrate= 508.5kbits/s speed=1.01x    frame= 1933 fps= 15 q=-1.0 size=    7936kB time=00:02:08.37 bitrate= 506.4kbits/s speed=1.01x    frame= 1941 fps= 15 q=-1.0 size=    7936kB time=00:02:08.93 bitrate= 504.2kbits/s speed=1.01x    frame= 1949 fps= 15 q=-1.0 size=    7936kB time=00:02:09.45 bitrate= 502.2kbits/s speed=1.01x    frame= 1957 fps= 15 q=-1.0 size=    7936kB time=00:02:09.97 bitrate= 500.2kbits/s speed=1.01x    frame= 1965 fps= 15 q=-1.0 size=    8192kB time=00:02:10.53 bitrate= 514.1kbits/s speed=1.01x    frame= 1973 fps= 15 q=-1.0 size=    8192kB time=00:02:11.05 bitrate= 512.1kbits/s speed=1.01x    frame= 1981 fps= 15 q=-1.0 size=    8192kB time=00:02:11.57 bitrate= 510.1kbits/s speed=1.01x    frame= 1989 fps= 15 q=-1.0 size=    8192kB time=00:02:12.13 bitrate= 507.9kbits/s speed=1.01x    frame= 1997 fps= 15 q=-1.0 size=    8192kB time=00:02:12.65 bitrate= 505.9kbits/s speed=1.01x    frame= 2005 fps= 15 q=-1.0 size=    8192kB time=00:02:13.17 bitrate= 503.9kbits/s speed=1.01x    frame= 2013 fps= 15 q=-1.0 size=    8192kB time=00:02:13.73 bitrate= 501.8kbits/s speed=1.01x    frame= 2021 fps= 15 q=-1.0 size=    8192kB time=00:02:14.25 bitrate= 499.9kbits/s speed=1.01x    frame= 2029 fps= 15 q=-1.0 size=    8448kB time=00:02:14.77 bitrate= 513.5kbits/s speed=1.01x    frame= 2037 fps= 15 q=-1.0 size=    8448kB time=00:02:15.33 bitrate= 511.4kbits/s speed=1.01x    frame= 2045 fps= 15 q=-1.0 size=    8448kB time=00:02:15.85 bitrate= 509.4kbits/s speed=1.01x    frame= 2053 fps= 15 q=-1.0 size=    8448kB time=00:02:16.37 bitrate= 507.5kbits/s speed=1.01x    frame= 2061 fps= 15 q=-1.0 size=    8448kB time=00:02:16.93 bitrate= 505.4kbits/s speed=1.01x    frame= 2069 fps= 15 q=-1.0 size=    8448kB time=00:02:17.45 bitrate= 503.5kbits/s speed=1.01x    frame= 2077 fps= 15 q=-1.0 size=    8448kB time=00:02:17.97 bitrate= 501.6kbits/s speed=1.01x    frame= 2085 fps= 15 q=-1.0 size=    8448kB time=00:02:18.53 bitrate= 499.6kbits/s speed=1.01x    frame= 2093 fps= 15 q=-1.0 size=    8704kB time=00:02:19.05 bitrate= 512.8kbits/s speed=1.01x    frame= 2101 fps= 15 q=-1.0 size=    8704kB time=00:02:19.57 bitrate= 510.9kbits/s speed=1.01x    frame= 2109 fps= 15 q=-1.0 size=    8704kB time=00:02:20.13 bitrate= 508.8kbits/s speed=1.01x    frame= 2117 fps= 15 q=-1.0 size=    8704kB time=00:02:20.65 bitrate= 506.9kbits/s speed=1.01x    frame= 2125 fps= 15 q=-1.0 size=    8704kB time=00:02:21.17 bitrate= 505.1kbits/s speed=1.01x    frame= 2133 fps= 15 q=-1.0 size=    8704kB time=00:02:21.73 bitrate= 503.1kbits/s speed=1.01x    frame= 2141 fps= 15 q=-1.0 size=    8704kB time=00:02:22.25 bitrate= 501.2kbits/s speed=1.01x    frame= 2149 fps= 15 q=-1.0 size=    8960kB time=00:02:22.77 bitrate= 514.1kbits/s speed=1.01x    frame= 2157 fps= 15 q=-1.0 size=    8960kB time=00:02:23.33 bitrate= 512.1kbits/s speed=1.01x    frame= 2165 fps= 15 q=-1.0 size=    8960kB time=00:02:23.85 bitrate= 510.3kbits/s speed=1.01x    frame= 2173 fps= 15 q=-1.0 size=    8960kB time=00:02:24.37 bitrate= 508.4kbits/s speed=1.01x    frame= 2181 fps= 15 q=-1.0 size=    8960kB time=00:02:24.93 bitrate= 506.5kbits/s speed=1.01x    frame= 2189 fps= 15 q=-1.0 size=    8960kB time=00:02:25.45 bitrate= 504.6kbits/s speed=1.01x    frame= 2197 fps= 15 q=-1.0 size=    8960kB time=00:02:25.97 bitrate= 502.8kbits/s speed=1.01x    frame= 2205 fps= 15 q=-1.0 size=    9216kB time=00:02:26.53 bitrate= 515.2kbits/s speed=1.01x    frame= 2213 fps= 15 q=-1.0 size=    9216kB time=00:02:27.05 bitrate= 513.4kbits/s speed=1.01x    frame= 2221 fps= 15 q=-1.0 size=    9216kB time=00:02:27.57 bitrate= 511.6kbits/s speed=1.01x    frame= 2229 fps= 15 q=-1.0 size=    9216kB time=00:02:28.13 bitrate= 509.7kbits/s speed=1.01x    frame= 2237 fps= 15 q=-1.0 size=    9216kB time=00:02:28.65 bitrate= 507.9kbits/s speed=1.01x    frame= 2245 fps= 15 q=-1.0 size=    9216kB time=00:02:29.17 bitrate= 506.1kbits/s speed=1.01x    frame= 2253 fps= 15 q=-1.0 size=    9472kB time=00:02:29.73 bitrate= 518.2kbits/s speed=1.01x    frame= 2261 fps= 15 q=-1.0 size=    9472kB time=00:02:30.25 bitrate= 516.4kbits/s speed=1.01x    frame= 2269 fps= 15 q=-1.0 size=    9472kB time=00:02:30.77 bitrate= 514.7kbits/s speed=1.01x    frame= 2277 fps= 15 q=-1.0 size=    9472kB time=00:02:31.33 bitrate= 512.7kbits/s speed=1.01x    frame= 2285 fps= 15 q=-1.0 size=    9472kB time=00:02:31.85 bitrate= 511.0kbits/s speed=1.01x    frame= 2293 fps= 15 q=-1.0 size=    9472kB time=00:02:32.37 bitrate= 509.2kbits/s speed=1.01x    frame= 2301 fps= 15 q=-1.0 size=    9472kB time=00:02:32.93 bitrate= 507.4kbits/s speed=1.01x    frame= 2309 fps= 15 q=-1.0 size=    9728kB time=00:02:33.45 bitrate= 519.3kbits/s speed=1.01x    frame= 2317 fps= 15 q=-1.0 size=    9728kB time=00:02:33.97 bitrate= 517.6kbits/s speed=1.01x    frame= 2325 fps= 15 q=-1.0 size=    9728kB time=00:02:34.53 bitrate= 515.7kbits/s speed=1.01x    frame= 2333 fps= 15 q=-1.0 size=    9728kB time=00:02:35.05 bitrate= 514.0kbits/s speed=1.01x    frame= 2341 fps= 15 q=-1.0 size=    9728kB time=00:02:35.57 bitrate= 512.3kbits/s speed=1.01x    frame= 2349 fps= 15 q=-1.0 size=    9728kB time=00:02:36.13 bitrate= 510.4kbits/s speed=1.01x    frame= 2357 fps= 15 q=-1.0 size=    9728kB time=00:02:36.65 bitrate= 508.7kbits/s speed=1.01x    frame= 2365 fps= 15 q=-1.0 size=    9728kB time=00:02:37.17 bitrate= 507.0kbits/s speed=1.01x    frame= 2373 fps= 15 q=-1.0 size=    9984kB time=00:02:37.73 bitrate= 518.5kbits/s speed=1.01x    frame= 2381 fps= 15 q=-1.0 size=    9984kB time=00:02:38.25 bitrate= 516.8kbits/s speed=1.01x    frame= 2389 fps= 15 q=-1.0 size=    9984kB time=00:02:38.77 bitrate= 515.1kbits/s speed=1.01x    frame= 2397 fps= 15 q=-1.0 size=    9984kB time=00:02:39.33 bitrate= 513.3kbits/s speed=1.01x    frame= 2405 fps= 15 q=-1.0 size=    9984kB time=00:02:39.85 bitrate= 511.7kbits/s speed=1.01x    frame= 2413 fps= 15 q=-1.0 size=   10240kB time=00:02:40.37 bitrate= 523.1kbits/s speed=1.01x    frame= 2421 fps= 15 q=-1.0 size=   10240kB time=00:02:40.93 bitrate= 521.3kbits/s speed=1.01x    frame= 2429 fps= 15 q=-1.0 size=   10240kB time=00:02:41.45 bitrate= 519.6kbits/s speed=1.01x    frame= 2437 fps= 15 q=-1.0 size=   10240kB time=00:02:41.97 bitrate= 517.9kbits/s speed=1.01x    frame= 2445 fps= 15 q=-1.0 size=   10240kB time=00:02:42.53 bitrate= 516.1kbits/s speed=1.01x    frame= 2453 fps= 15 q=-1.0 size=   10240kB time=00:02:43.05 bitrate= 514.5kbits/s speed=1.01x    frame= 2461 fps= 15 q=-1.0 size=   10240kB time=00:02:43.56 bitrate= 512.8kbits/s speed=1.01x    frame= 2469 fps= 15 q=-1.0 size=   10496kB time=00:02:44.12 bitrate= 523.9kbits/s speed=1.01x    frame= 2477 fps= 15 q=-1.0 size=   10496kB time=00:02:44.64 bitrate= 522.2kbits/s speed=1.01x    frame= 2485 fps= 15 q=-1.0 size=   10496kB time=00:02:45.16 bitrate= 520.6kbits/s speed=1.01x    frame= 2493 fps= 15 q=-1.0 size=   10496kB time=00:02:45.72 bitrate= 518.8kbits/s speed=1.01x    frame= 2501 fps= 15 q=-1.0 size=   10496kB time=00:02:46.24 bitrate= 517.2kbits/s speed=1.01x    frame= 2509 fps= 15 q=-1.0 size=   10496kB time=00:02:46.76 bitrate= 515.6kbits/s speed=1.01x    frame= 2517 fps= 15 q=-1.0 size=   10496kB time=00:02:47.32 bitrate= 513.9kbits/s speed=1.01x    frame= 2525 fps= 15 q=-1.0 size=   10752kB time=00:02:47.84 bitrate= 524.8kbits/s speed=1.01x    frame= 2533 fps= 15 q=-1.0 size=   10752kB time=00:02:48.36 bitrate= 523.1kbits/s speed=1.01x    frame= 2541 fps= 15 q=-1.0 size=   10752kB time=00:02:48.92 bitrate= 521.4kbits/s speed=1.01x    frame= 2549 fps= 15 q=-1.0 size=   10752kB time=00:02:49.44 bitrate= 519.8kbits/s speed=1.01x    frame= 2557 fps= 15 q=-1.0 size=   10752kB time=00:02:49.96 bitrate= 518.2kbits/s speed=1.01x    frame= 2565 fps= 15 q=-1.0 size=   10752kB time=00:02:50.52 bitrate= 516.5kbits/s speed=1.01x    frame= 2573 fps= 15 q=-1.0 size=   11008kB time=00:02:51.04 bitrate= 527.2kbits/s speed=1.01x    frame= 2581 fps= 15 q=-1.0 size=   11008kB time=00:02:51.56 bitrate= 525.6kbits/s speed=1.01x    frame= 2589 fps= 15 q=-1.0 size=   11008kB time=00:02:52.12 bitrate= 523.9kbits/s speed=1.01x    frame= 2597 fps= 15 q=-1.0 size=   11008kB time=00:02:52.64 bitrate= 522.3kbits/s speed=1.01x    frame= 2605 fps= 15 q=-1.0 size=   11008kB time=00:02:53.16 bitrate= 520.7kbits/s speed=1.01x    frame= 2613 fps= 15 q=-1.0 size=   11008kB time=00:02:53.72 bitrate= 519.1kbits/s speed=1.01x    frame= 2621 fps= 15 q=-1.0 size=   11008kB time=00:02:54.24 bitrate= 517.5kbits/s speed=1.01x    frame= 2629 fps= 15 q=-1.0 size=   11008kB time=00:02:54.76 bitrate= 516.0kbits/s speed=1.01x    frame= 2637 fps= 15 q=-1.0 size=   11264kB time=00:02:55.32 bitrate= 526.3kbits/s speed=1.01x    frame= 2645 fps= 15 q=-1.0 size=   11264kB time=00:02:55.84 bitrate= 524.7kbits/s speed=1.01x    frame= 2653 fps= 15 q=-1.0 size=   11264kB time=00:02:56.36 bitrate= 523.2kbits/s speed=1.01x    frame= 2661 fps= 15 q=-1.0 size=   11264kB time=00:02:56.92 bitrate= 521.5kbits/s speed=1.01x    frame= 2669 fps= 15 q=-1.0 size=   11264kB time=00:02:57.44 bitrate= 520.0kbits/s speed=1.01x    frame= 2677 fps= 15 q=-1.0 size=   11264kB time=00:02:57.96 bitrate= 518.5kbits/s speed=1.01x    frame= 2685 fps= 15 q=-1.0 size=   11264kB time=00:02:58.52 bitrate= 516.9kbits/s speed=1.01x    frame= 2693 fps= 15 q=-1.0 size=   11264kB time=00:02:59.04 bitrate= 515.4kbits/s speed=1.01x    frame= 2701 fps= 15 q=-1.0 size=   11520kB time=00:02:59.56 bitrate= 525.5kbits/s speed=1.01x    frame= 2709 fps= 15 q=-1.0 size=   11520kB time=00:03:00.12 bitrate= 523.9kbits/s speed=1.01x    frame= 2717 fps= 15 q=-1.0 size=   11520kB time=00:03:00.64 bitrate= 522.4kbits/s speed=1.01x    frame= 2725 fps= 15 q=-1.0 size=   11520kB time=00:03:01.16 bitrate= 520.9kbits/s speed=1.01x    frame= 2733 fps= 15 q=-1.0 size=   11520kB time=00:03:01.72 bitrate= 519.3kbits/s speed=1.01x    frame= 2741 fps= 15 q=-1.0 size=   11520kB time=00:03:02.24 bitrate= 517.8kbits/s speed=1.01x    frame= 2749 fps= 15 q=-1.0 size=   11520kB time=00:03:02.76 bitrate= 516.3kbits/s speed=1.01x    frame= 2757 fps= 15 q=-1.0 size=   11776kB time=00:03:03.32 bitrate= 526.2kbits/s speed=1.01x    frame= 2765 fps= 15 q=-1.0 size=   11776kB time=00:03:03.84 bitrate= 524.7kbits/s speed=1.01x    frame= 2773 fps= 15 q=-1.0 size=   11776kB time=00:03:04.36 bitrate= 523.2kbits/s speed=1.01x    frame= 2781 fps= 15 q=-1.0 size=   11776kB time=00:03:04.92 bitrate= 521.7kbits/s speed=1.01x    frame= 2789 fps= 15 q=-1.0 size=   11776kB time=00:03:05.44 bitrate= 520.2kbits/s speed=1.01x    frame= 2797 fps= 15 q=-1.0 size=   11776kB time=00:03:05.96 bitrate= 518.7kbits/s speed=1.01x    frame= 2805 fps= 15 q=-1.0 size=   11776kB time=00:03:06.52 bitrate= 517.2kbits/s speed=1.01x    frame= 2813 fps= 15 q=-1.0 size=   11776kB time=00:03:07.04 bitrate= 515.7kbits/s speed=1.01x    frame= 2821 fps= 15 q=-1.0 size=   12032kB time=00:03:07.56 bitrate= 525.5kbits/s speed=1.01x    frame= 2829 fps= 15 q=-1.0 size=   12032kB time=00:03:08.12 bitrate= 523.9kbits/s speed=1.01x    frame= 2837 fps= 15 q=-1.0 size=   12032kB time=00:03:08.64 bitrate= 522.5kbits/s speed=1.01x    frame= 2845 fps= 15 q=-1.0 size=   12032kB time=00:03:09.16 bitrate= 521.1kbits/s speed=1.01x    frame= 2853 fps= 15 q=-1.0 size=   12032kB time=00:03:09.72 bitrate= 519.5kbits/s speed=1.01x    frame= 2861 fps= 15 q=-1.0 size=   12032kB time=00:03:10.24 bitrate= 518.1kbits/s speed=1.01x    frame= 2869 fps= 15 q=-1.0 size=   12032kB time=00:03:10.76 bitrate= 516.7kbits/s speed=1.01x    frame= 2877 fps= 15 q=-1.0 size=   12288kB time=00:03:11.32 bitrate= 526.1kbits/s speed=1.01x    frame= 2885 fps= 15 q=-1.0 size=   12288kB time=00:03:11.84 bitrate= 524.7kbits/s speed=1.01x    frame= 2893 fps= 15 q=-1.0 size=   12288kB time=00:03:12.36 bitrate= 523.3kbits/s speed=1.01x    frame= 2901 fps= 15 q=-1.0 size=   12288kB time=00:03:12.92 bitrate= 521.8kbits/s speed=1.01x    frame= 2909 fps= 15 q=-1.0 size=   12288kB time=00:03:13.44 bitrate= 520.4kbits/s speed=1.01x    frame= 2917 fps= 15 q=-1.0 size=   12288kB time=00:03:13.96 bitrate= 519.0kbits/s speed=1.01x    frame= 2925 fps= 15 q=-1.0 size=   12288kB time=00:03:14.52 bitrate= 517.5kbits/s speed=1.01x    frame= 2933 fps= 15 q=-1.0 size=   12544kB time=00:03:15.04 bitrate= 526.9kbits/s speed=1.01x    frame= 2941 fps= 15 q=-1.0 size=   12544kB time=00:03:15.56 bitrate= 525.5kbits/s speed=1.01x    frame= 2949 fps= 15 q=-1.0 size=   12544kB time=00:03:16.12 bitrate= 524.0kbits/s speed=1.01x    frame= 2957 fps= 15 q=-1.0 size=   12544kB time=00:03:16.64 bitrate= 522.6kbits/s speed=1.01x    frame= 2965 fps= 15 q=-1.0 size=   12544kB time=00:03:17.16 bitrate= 521.2kbits/s speed=1.01x    frame= 2973 fps= 15 q=-1.0 size=   12544kB time=00:03:17.72 bitrate= 519.7kbits/s speed=1.01x    frame= 2981 fps= 15 q=-1.0 size=   12544kB time=00:03:18.24 bitrate= 518.3kbits/s speed=1.01x    frame= 2989 fps= 15 q=-1.0 size=   12800kB time=00:03:18.76 bitrate= 527.5kbits/s speed=1.01x    frame= 2997 fps= 15 q=-1.0 size=   12800kB time=00:03:19.32 bitrate= 526.1kbits/s speed=1.01x    frame= 3005 fps= 15 q=-1.0 size=   12800kB time=00:03:19.84 bitrate= 524.7kbits/s speed=1.01x    frame= 3013 fps= 15 q=-1.0 size=   12800kB time=00:03:20.36 bitrate= 523.3kbits/s speed=1.01x    frame= 3021 fps= 15 q=-1.0 size=   12800kB time=00:03:20.92 bitrate= 521.9kbits/s speed=1.01x    frame= 3029 fps= 15 q=-1.0 size=   12800kB time=00:03:21.44 bitrate= 520.5kbits/s speed=1.01x    frame= 3037 fps= 15 q=-1.0 size=   12800kB time=00:03:21.96 bitrate= 519.2kbits/s speed=1.01x    frame= 3045 fps= 15 q=-1.0 size=   13056kB time=00:03:22.52 bitrate= 528.1kbits/s speed=1.01x    frame= 3053 fps= 15 q=-1.0 size=   13056kB time=00:03:23.04 bitrate= 526.8kbits/s speed=1.01x    frame= 3061 fps= 15 q=-1.0 size=   13056kB time=00:03:23.56 bitrate= 525.4kbits/s speed=1.01x    frame= 3069 fps= 15 q=-1.0 size=   13056kB time=00:03:24.12 bitrate= 524.0kbits/s speed=1.01x    frame= 3077 fps= 15 q=-1.0 size=   13056kB time=00:03:24.64 bitrate= 522.6kbits/s speed=1.01x    frame= 3085 fps= 15 q=-1.0 size=   13056kB time=00:03:25.16 bitrate= 521.3kbits/s speed=1.01x    frame= 3093 fps= 15 q=-1.0 size=   13056kB time=00:03:25.72 bitrate= 519.9kbits/s speed=1.01x    frame= 3101 fps= 15 q=-1.0 size=   13312kB time=00:03:26.24 bitrate= 528.7kbits/s speed=1.01x    frame= 3109 fps= 15 q=-1.0 size=   13312kB time=00:03:26.76 bitrate= 527.4kbits/s speed=1.01x    frame= 3117 fps= 15 q=-1.0 size=   13312kB time=00:03:27.32 bitrate= 526.0kbits/s speed=1.01x    frame= 3125 fps= 15 q=-1.0 size=   13312kB time=00:03:27.84 bitrate= 524.7kbits/s speed=1.01x    frame= 3133 fps= 15 q=-1.0 size=   13312kB time=00:03:28.36 bitrate= 523.4kbits/s speed=1.01x    frame= 3141 fps= 15 q=-1.0 size=   13312kB time=00:03:28.92 bitrate= 522.0kbits/s speed=1.01x    frame= 3149 fps= 15 q=-1.0 size=   13312kB time=00:03:29.44 bitrate= 520.7kbits/s speed=1.01x    frame= 3157 fps= 15 q=-1.0 size=   13568kB time=00:03:29.96 bitrate= 529.4kbits/s speed=1.01x    frame= 3165 fps= 15 q=-1.0 size=   13568kB time=00:03:30.52 bitrate= 528.0kbits/s speed=1.01x    frame= 3173 fps= 15 q=-1.0 size=   13568kB time=00:03:31.04 bitrate= 526.7kbits/s speed=1.01x    frame= 3181 fps= 15 q=-1.0 size=   13568kB time=00:03:31.56 bitrate= 525.4kbits/s speed=1.01x    frame= 3189 fps= 15 q=-1.0 size=   13568kB time=00:03:32.12 bitrate= 524.0kbits/s speed=1.01x    frame= 3197 fps= 15 q=-1.0 size=   13824kB time=00:03:32.64 bitrate= 532.6kbits/s speed=1.01x    frame= 3205 fps= 15 q=-1.0 size=   13824kB time=00:03:33.16 bitrate= 531.3kbits/s speed=1.01x    frame= 3213 fps= 15 q=-1.0 size=   13824kB time=00:03:33.72 bitrate= 529.9kbits/s speed=1.01x    frame= 3221 fps= 15 q=-1.0 size=   13824kB time=00:03:34.24 bitrate= 528.6kbits/s speed=1.01x    frame= 3229 fps= 15 q=-1.0 size=   14080kB time=00:03:34.76 bitrate= 537.1kbits/s speed=1.01x    frame= 3237 fps= 15 q=-1.0 size=   14080kB time=00:03:35.32 bitrate= 535.7kbits/s speed=1.01x    frame= 3245 fps= 15 q=-1.0 size=   14080kB time=00:03:35.84 bitrate= 534.4kbits/s speed=1.01x    frame= 3253 fps= 15 q=-1.0 size=   14080kB time=00:03:36.36 bitrate= 533.1kbits/s speed=1.01x    frame= 3261 fps= 15 q=-1.0 size=   14080kB time=00:03:36.92 bitrate= 531.7kbits/s speed=1.01x    frame= 3269 fps= 15 q=-1.0 size=   14080kB time=00:03:37.44 bitrate= 530.5kbits/s speed=1.01x    frame= 3277 fps= 15 q=-1.0 size=   14080kB time=00:03:37.96 bitrate= 529.2kbits/s speed=1.01x    frame= 3285 fps= 15 q=-1.0 size=   14080kB time=00:03:38.52 bitrate= 527.8kbits/s speed=1.01x    frame= 3293 fps= 15 q=-1.0 size=   14336kB time=00:03:39.04 bitrate= 536.2kbits/s speed=1.01x    frame= 3301 fps= 15 q=-1.0 size=   14336kB time=00:03:39.56 bitrate= 534.9kbits/s speed=1.01x    frame= 3309 fps= 15 q=-1.0 size=   14336kB time=00:03:40.12 bitrate= 533.5kbits/s speed=1.01x    frame= 3317 fps= 15 q=-1.0 size=   14336kB time=00:03:40.64 bitrate= 532.3kbits/s speed=1.01x    frame= 3325 fps= 15 q=-1.0 size=   14336kB time=00:03:41.16 bitrate= 531.0kbits/s speed=1.01x    frame= 3333 fps= 15 q=-1.0 size=   14336kB time=00:03:41.72 bitrate= 529.7kbits/s speed=1.01x    frame= 3341 fps= 15 q=-1.0 size=   14336kB time=00:03:42.24 bitrate= 528.4kbits/s speed=1.01x    frame= 3349 fps= 15 q=-1.0 size=   14336kB time=00:03:42.76 bitrate= 527.2kbits/s speed=1.01x    frame= 3357 fps= 15 q=-1.0 size=   14592kB time=00:03:43.32 bitrate= 535.3kbits/s speed=1.01x    frame= 3365 fps= 15 q=-1.0 size=   14592kB time=00:03:43.84 bitrate= 534.0kbits/s speed=1.01x    frame= 3373 fps= 15 q=-1.0 size=   14592kB time=00:03:44.36 bitrate= 532.8kbits/s speed=1.01x    frame= 3381 fps= 15 q=-1.0 size=   14592kB time=00:03:44.92 bitrate= 531.5kbits/s speed=1.01x    frame= 3389 fps= 15 q=-1.0 size=   14592kB time=00:03:45.44 bitrate= 530.2kbits/s speed=1.01x    frame= 3397 fps= 15 q=-1.0 size=   14592kB time=00:03:45.96 bitrate= 529.0kbits/s speed=1.01x    frame= 3405 fps= 15 q=-1.0 size=   14592kB time=00:03:46.52 bitrate= 527.7kbits/s speed=1.01x    frame= 3413 fps= 15 q=-1.0 size=   14592kB time=00:03:47.04 bitrate= 526.5kbits/s speed=1.01x    frame= 3421 fps= 15 q=-1.0 size=   14848kB time=00:03:47.56 bitrate= 534.5kbits/s speed=1.01x    frame= 3429 fps= 15 q=-1.0 size=   14848kB time=00:03:48.12 bitrate= 533.2kbits/s speed=1.01x    frame= 3437 fps= 15 q=-1.0 size=   14848kB time=00:03:48.64 bitrate= 532.0kbits/s speed=1.01x    frame= 3445 fps= 15 q=-1.0 size=   14848kB time=00:03:49.16 bitrate= 530.8kbits/s speed=1.01x    frame= 3453 fps= 15 q=-1.0 size=   14848kB time=00:03:49.72 bitrate= 529.5kbits/s speed=1.01x    frame= 3461 fps= 15 q=-1.0 size=   14848kB time=00:03:50.24 bitrate= 528.3kbits/s speed=1.01x    frame= 3469 fps= 15 q=-1.0 size=   14848kB time=00:03:50.76 bitrate= 527.1kbits/s speed=1.01x    frame= 3477 fps= 15 q=-1.0 size=   14848kB time=00:03:51.32 bitrate= 525.8kbits/s speed=1.01x    frame= 3485 fps= 15 q=-1.0 size=   15104kB time=00:03:51.84 bitrate= 533.7kbits/s speed=1.01x    frame= 3493 fps= 15 q=-1.0 size=   15104kB time=00:03:52.36 bitrate= 532.5kbits/s speed=1.01x    frame= 3501 fps= 15 q=-1.0 size=   15104kB time=00:03:52.92 bitrate= 531.2kbits/s speed=1.01x    frame= 3509 fps= 15 q=-1.0 size=   15104kB time=00:03:53.44 bitrate= 530.0kbits/s speed=1.01x    frame= 3517 fps= 15 q=-1.0 size=   15104kB time=00:03:53.96 bitrate= 528.9kbits/s speed=1.01x    frame= 3525 fps= 15 q=-1.0 size=   15104kB time=00:03:54.52 bitrate= 527.6kbits/s speed=1.01x    frame= 3533 fps= 15 q=-1.0 size=   15104kB time=00:03:55.04 bitrate= 526.4kbits/s speed=1.01x    frame= 3541 fps= 15 q=-1.0 size=   15360kB time=00:03:55.56 bitrate= 534.2kbits/s speed=1.01x    frame= 3549 fps= 15 q=-1.0 size=   15360kB time=00:03:56.12 bitrate= 532.9kbits/s speed=1.01x    frame= 3557 fps= 15 q=-1.0 size=   15360kB time=00:03:56.64 bitrate= 531.7kbits/s speed=1.01x    frame= 3565 fps= 15 q=-1.0 size=   15360kB time=00:03:57.16 bitrate= 530.6kbits/s speed=1.01x    frame= 3573 fps= 15 q=-1.0 size=   15360kB time=00:03:57.72 bitrate= 529.3kbits/s speed=1.01x    frame= 3581 fps= 15 q=-1.0 size=   15360kB time=00:03:58.24 bitrate= 528.2kbits/s speed=1.01x    frame= 3589 fps= 15 q=-1.0 size=   15360kB time=00:03:58.76 bitrate= 527.0kbits/s speed=1.01x    frame= 3597 fps= 15 q=-1.0 size=   15360kB time=00:03:59.32 bitrate= 525.8kbits/s speed=1.01x    frame= 3605 fps= 15 q=-1.0 size=   15616kB time=00:03:59.84 bitrate= 533.4kbits/s speed=1.01x    frame= 3613 fps= 15 q=-1.0 size=   15616kB time=00:04:00.36 bitrate= 532.2kbits/s speed=1.01x    frame= 3621 fps= 15 q=-1.0 size=   15616kB time=00:04:00.92 bitrate= 531.0kbits/s speed=1.01x    frame= 3629 fps= 15 q=-1.0 size=   15616kB time=00:04:01.44 bitrate= 529.8kbits/s speed=1.01x    frame= 3637 fps= 15 q=-1.0 size=   15616kB time=00:04:01.96 bitrate= 528.7kbits/s speed=1.01x    frame= 3645 fps= 15 q=-1.0 size=   15872kB time=00:04:02.52 bitrate= 536.1kbits/s speed=1.01x    frame= 3653 fps= 15 q=-1.0 size=   15872kB time=00:04:03.04 bitrate= 535.0kbits/s speed=1.01x    frame= 3661 fps= 15 q=-1.0 size=   15872kB time=00:04:03.56 bitrate= 533.8kbits/s speed=1.01x    frame= 3669 fps= 15 q=-1.0 size=   15872kB time=00:04:04.12 bitrate= 532.6kbits/s speed=1.01x    frame= 3677 fps= 15 q=-1.0 size=   15872kB time=00:04:04.64 bitrate= 531.5kbits/s speed=1.01x    frame= 3685 fps= 15 q=-1.0 size=   15872kB time=00:04:05.16 bitrate= 530.4kbits/s speed=1.01x    frame= 3693 fps= 15 q=-1.0 size=   15872kB time=00:04:05.72 bitrate= 529.2kbits/s speed=1.01x    frame= 3701 fps= 15 q=-1.0 size=   16128kB time=00:04:06.24 bitrate= 536.5kbits/s speed=1.01x    frame= 3709 fps= 15 q=-1.0 size=   16128kB time=00:04:06.76 bitrate= 535.4kbits/s speed=1.01x    frame= 3717 fps= 15 q=-1.0 size=   16128kB time=00:04:07.32 bitrate= 534.2kbits/s speed=1.01x    frame= 3725 fps= 15 q=-1.0 size=   16128kB time=00:04:07.84 bitrate= 533.1kbits/s speed=1.01x    frame= 3733 fps= 15 q=-1.0 size=   16128kB time=00:04:08.36 bitrate= 532.0kbits/s speed=1.01x    frame= 3741 fps= 15 q=-1.0 size=   16128kB time=00:04:08.92 bitrate= 530.8kbits/s speed=1.01x    frame= 3750 fps= 15 q=-1.0 size=   16128kB time=00:04:09.52 bitrate= 529.5kbits/s speed=1.01x    frame= 3758 fps= 15 q=-1.0 size=   16384kB time=00:04:10.04 bitrate= 536.8kbits/s speed=1.01x    frame= 3766 fps= 15 q=-1.0 size=   16384kB time=00:04:10.56 bitrate= 535.7kbits/s speed=1.01x    frame= 3774 fps= 15 q=-1.0 size=   16384kB time=00:04:11.12 bitrate= 534.5kbits/s speed=1.01x    frame= 3782 fps= 15 q=-1.0 size=   16384kB time=00:04:11.64 bitrate= 533.4kbits/s speed=1.01x    frame= 3790 fps= 15 q=-1.0 size=   16384kB time=00:04:12.16 bitrate= 532.3kbits/s speed=1.01x    frame= 3798 fps= 15 q=-1.0 size=   16384kB time=00:04:12.72 bitrate= 531.1kbits/s speed=1.01x    frame= 3806 fps= 15 q=-1.0 size=   16384kB time=00:04:13.24 bitrate= 530.0kbits/s speed=1.01x    frame= 3814 fps= 15 q=-1.0 size=   16384kB time=00:04:13.76 bitrate= 528.9kbits/s speed=1.01x    frame= 3822 fps= 15 q=-1.0 size=   16640kB time=00:04:14.32 bitrate= 536.0kbits/s speed=1.01x    frame= 3830 fps= 15 q=-1.0 size=   16640kB time=00:04:14.84 bitrate= 534.9kbits/s speed=1.01x    frame= 3838 fps= 15 q=-1.0 size=   16640kB time=00:04:15.36 bitrate= 533.8kbits/s speed=1.01x    frame= 3846 fps= 15 q=-1.0 size=   16640kB time=00:04:15.92 bitrate= 532.6kbits/s speed=1.01x    frame= 3854 fps= 15 q=-1.0 size=   16640kB time=00:04:16.44 bitrate= 531.6kbits/s speed=1.01x    frame= 3862 fps= 15 q=-1.0 size=   16640kB time=00:04:16.96 bitrate= 530.5kbits/s speed=1.01x    frame= 3870 fps= 15 q=-1.0 size=   16640kB time=00:04:17.52 bitrate= 529.3kbits/s speed=1.01x    frame= 3878 fps= 15 q=-1.0 size=   16640kB time=00:04:18.04 bitrate= 528.3kbits/s speed=1.01x    frame= 3886 fps= 15 q=-1.0 size=   16896kB time=00:04:18.56 bitrate= 535.3kbits/s speed=1.01x    frame= 3894 fps= 15 q=-1.0 size=   16896kB time=00:04:19.12 bitrate= 534.2kbits/s speed=1.01x    frame= 3902 fps= 15 q=-1.0 size=   16896kB time=00:04:19.64 bitrate= 533.1kbits/s speed=1.01x    frame= 3910 fps= 15 q=-1.0 size=   16896kB time=00:04:20.16 bitrate= 532.0kbits/s speed=1.01x    frame= 3918 fps= 15 q=-1.0 size=   16896kB time=00:04:20.72 bitrate= 530.9kbits/s speed=1.01x    frame= 3926 fps= 15 q=-1.0 size=   16896kB time=00:04:21.24 bitrate= 529.8kbits/s speed=1.01x    frame= 3934 fps= 15 q=-1.0 size=   17152kB time=00:04:21.76 bitrate= 536.8kbits/s speed=1.01x    frame= 3942 fps= 15 q=-1.0 size=   17152kB time=00:04:22.32 bitrate= 535.6kbits/s speed=1.01x    frame= 3950 fps= 15 q=-1.0 size=   17152kB time=00:04:22.84 bitrate= 534.6kbits/s speed=1.01x    frame= 3958 fps= 15 q=-1.0 size=   17152kB time=00:04:23.36 bitrate= 533.5kbits/s speed=1.01x    frame= 3966 fps= 15 q=-1.0 size=   17152kB time=00:04:23.91 bitrate= 532.4kbits/s speed=1.01x    frame= 3974 fps= 15 q=-1.0 size=   17152kB time=00:04:24.43 bitrate= 531.3kbits/s speed=1.01x    frame= 3982 fps= 15 q=-1.0 size=   17152kB time=00:04:24.95 bitrate= 530.3kbits/s speed=1.01x    frame= 3990 fps= 15 q=-1.0 size=   17408kB time=00:04:25.51 bitrate= 537.1kbits/s speed=1.01x    frame= 3998 fps= 15 q=-1.0 size=   17408kB time=00:04:26.03 bitrate= 536.0kbits/s speed=1.01x    frame= 4006 fps= 15 q=-1.0 size=   17408kB time=00:04:26.55 bitrate= 535.0kbits/s speed=1.01x    frame= 4014 fps= 15 q=-1.0 size=   17408kB time=00:04:27.11 bitrate= 533.9kbits/s speed=1.01x    frame= 4022 fps= 15 q=-1.0 size=   17408kB time=00:04:27.63 bitrate= 532.8kbits/s speed=1.01x    frame= 4030 fps= 15 q=-1.0 size=   17408kB time=00:04:28.15 bitrate= 531.8kbits/s speed=1.01x    frame= 4038 fps= 15 q=-1.0 size=   17408kB time=00:04:28.71 bitrate= 530.7kbits/s speed=1.01x    frame= 4046 fps= 15 q=-1.0 size=   17664kB time=00:04:29.23 bitrate= 537.5kbits/s speed=1.01x    frame= 4054 fps= 15 q=-1.0 size=   17664kB time=00:04:29.75 bitrate= 536.4kbits/s speed=1.01x    frame= 4062 fps= 15 q=-1.0 size=   17664kB time=00:04:30.31 bitrate= 535.3kbits/s speed=1.01x    frame= 4070 fps= 15 q=-1.0 size=   17664kB time=00:04:30.83 bitrate= 534.3kbits/s speed=1.01x    frame= 4078 fps= 15 q=-1.0 size=   17664kB time=00:04:31.35 bitrate= 533.3kbits/s speed=1.01x    frame= 4086 fps= 15 q=-1.0 size=   17664kB time=00:04:31.91 bitrate= 532.2kbits/s speed=1.01x    frame= 4094 fps= 15 q=-1.0 size=   17664kB time=00:04:32.43 bitrate= 531.1kbits/s speed=1.01x    frame= 4102 fps= 15 q=-1.0 size=   17664kB time=00:04:32.95 bitrate= 530.1kbits/s speed=1.01x    frame= 4110 fps= 15 q=-1.0 size=   17664kB time=00:04:33.51 bitrate= 529.0kbits/s speed=1.01x    frame= 4118 fps= 15 q=-1.0 size=   17920kB time=00:04:34.03 bitrate= 535.7kbits/s speed=1.01x    frame= 4126 fps= 15 q=-1.0 size=   17920kB time=00:04:34.55 bitrate= 534.7kbits/s speed=1.01x    frame= 4134 fps= 15 q=-1.0 size=   17920kB time=00:04:35.11 bitrate= 533.6kbits/s speed=1.01x    frame= 4142 fps= 15 q=-1.0 size=   17920kB time=00:04:35.63 bitrate= 532.6kbits/s speed=1.01x    frame= 4150 fps= 15 q=-1.0 size=   17920kB time=00:04:36.15 bitrate= 531.6kbits/s speed=1.01x    frame= 4158 fps= 15 q=-1.0 size=   17920kB time=00:04:36.71 bitrate= 530.5kbits/s speed=1.01x    frame= 4166 fps= 15 q=-1.0 size=   18176kB time=00:04:37.23 bitrate= 537.1kbits/s speed=1.01x    frame= 4174 fps= 15 q=-1.0 size=   18176kB time=00:04:37.75 bitrate= 536.1kbits/s speed=1.01x    frame= 4182 fps= 15 q=-1.0 size=   18176kB time=00:04:38.31 bitrate= 535.0kbits/s speed=1.01x    frame= 4190 fps= 15 q=-1.0 size=   18176kB time=00:04:38.83 bitrate= 534.0kbits/s speed=1.01x    frame= 4198 fps= 15 q=-1.0 size=   18176kB time=00:04:39.35 bitrate= 533.0kbits/s speed=1.01x    frame= 4206 fps= 15 q=-1.0 size=   18176kB time=00:04:39.91 bitrate= 531.9kbits/s speed=1.01x    frame= 4214 fps= 15 q=-1.0 size=   18176kB time=00:04:40.43 bitrate= 530.9kbits/s speed=1.01x    frame= 4222 fps= 15 q=-1.0 size=   18176kB time=00:04:40.95 bitrate= 530.0kbits/s speed=1.01x    frame= 4230 fps= 15 q=-1.0 size=   18176kB time=00:04:41.51 bitrate= 528.9kbits/s speed=1.01x    frame= 4238 fps= 15 q=-1.0 size=   18432kB time=00:04:42.03 bitrate= 535.4kbits/s speed=1.01x    frame= 4246 fps= 15 q=-1.0 size=   18432kB time=00:04:42.55 bitrate= 534.4kbits/s speed=1.01x    frame= 4254 fps= 15 q=-1.0 size=   18432kB time=00:04:43.11 bitrate= 533.3kbits/s speed=1.01x    frame= 4262 fps= 15 q=-1.0 size=   18432kB time=00:04:43.63 bitrate= 532.4kbits/s speed=1.01x    frame= 4270 fps= 15 q=-1.0 size=   18432kB time=00:04:44.15 bitrate= 531.4kbits/s speed=1.01x    frame= 4278 fps= 15 q=-1.0 size=   18432kB time=00:04:44.71 bitrate= 530.3kbits/s speed=1.01x    frame= 4286 fps= 15 q=-1.0 size=   18688kB time=00:04:45.23 bitrate= 536.7kbits/s speed=1.01x    frame= 4294 fps= 15 q=-1.0 size=   18688kB time=00:04:45.75 bitrate= 535.7kbits/s speed=1.01x    frame= 4302 fps= 15 q=-1.0 size=   18688kB time=00:04:46.31 bitrate= 534.7kbits/s speed=1.01x    frame= 4310 fps= 15 q=-1.0 size=   18688kB time=00:04:46.83 bitrate= 533.7kbits/s speed=1.01x    frame= 4318 fps= 15 q=-1.0 size=   18688kB time=00:04:47.35 bitrate= 532.8kbits/s speed=1.01x    frame= 4326 fps= 15 q=-1.0 size=   18688kB time=00:04:47.91 bitrate= 531.7kbits/s speed=1.01x    frame= 4334 fps= 15 q=-1.0 size=   18688kB time=00:04:48.43 bitrate= 530.8kbits/s speed=1.01x    frame= 4342 fps= 15 q=-1.0 size=   18944kB time=00:04:48.95 bitrate= 537.1kbits/s speed=1.01x    frame= 4350 fps= 15 q=-1.0 size=   18944kB time=00:04:49.51 bitrate= 536.0kbits/s speed=1.01x    frame= 4358 fps= 15 q=-1.0 size=   18944kB time=00:04:50.03 bitrate= 535.1kbits/s speed=1.01x    frame= 4366 fps= 15 q=-1.0 size=   18944kB time=00:04:50.55 bitrate= 534.1kbits/s speed=1.01x    frame= 4374 fps= 15 q=-1.0 size=   18944kB time=00:04:51.11 bitrate= 533.1kbits/s speed=1.01x    frame= 4382 fps= 15 q=-1.0 size=   18944kB time=00:04:51.63 bitrate= 532.1kbits/s speed=1.01x    frame= 4390 fps= 15 q=-1.0 size=   19200kB time=00:04:52.15 bitrate= 538.4kbits/s speed=1.01x    frame= 4398 fps= 15 q=-1.0 size=   19200kB time=00:04:52.71 bitrate= 537.3kbits/s speed=1.01x    frame= 4406 fps= 15 q=-1.0 size=   19200kB time=00:04:53.23 bitrate= 536.4kbits/s speed=1.01x    frame= 4414 fps= 15 q=-1.0 size=   19200kB time=00:04:53.75 bitrate= 535.4kbits/s speed=1.01x    frame= 4422 fps= 15 q=-1.0 size=   19200kB time=00:04:54.31 bitrate= 534.4kbits/s speed=1.01x    frame= 4430 fps= 15 q=-1.0 size=   19200kB time=00:04:54.83 bitrate= 533.5kbits/s speed=1.01x    frame= 4438 fps= 15 q=-1.0 size=   19456kB time=00:04:55.35 bitrate= 539.6kbits/s speed=1.01x    frame= 4446 fps= 15 q=-1.0 size=   19456kB time=00:04:55.91 bitrate= 538.6kbits/s speed=1.01x    frame= 4454 fps= 15 q=-1.0 size=   19456kB time=00:04:56.43 bitrate= 537.7kbits/s speed=1.01x    frame= 4462 fps= 15 q=-1.0 size=   19456kB time=00:04:56.95 bitrate= 536.7kbits/s speed=1.01x    frame= 4470 fps= 15 q=-1.0 size=   19456kB time=00:04:57.51 bitrate= 535.7kbits/s speed=1.01x    frame= 4478 fps= 15 q=-1.0 size=   19456kB time=00:04:58.03 bitrate= 534.8kbits/s speed=1.01x    frame= 4486 fps= 15 q=-1.0 size=   19456kB time=00:04:58.55 bitrate= 533.8kbits/s speed=1.01x    frame= 4494 fps= 15 q=-1.0 size=   19712kB time=00:04:59.11 bitrate= 539.9kbits/s speed=1.01x    frame= 4502 fps= 15 q=-1.0 size=   19712kB time=00:04:59.63 bitrate= 538.9kbits/s speed=1.01x    frame= 4510 fps= 15 q=-1.0 size=   19712kB time=00:05:00.15 bitrate= 538.0kbits/s speed=1.01x    frame= 4518 fps= 15 q=-1.0 size=   19712kB time=00:05:00.71 bitrate= 537.0kbits/s speed=1.01x    frame= 4526 fps= 15 q=-1.0 size=   19712kB time=00:05:01.23 bitrate= 536.1kbits/s speed=1.01x    frame= 4534 fps= 15 q=-1.0 size=   19712kB time=00:05:01.75 bitrate= 535.1kbits/s speed=1.01x    frame= 4542 fps= 15 q=-1.0 size=   19712kB time=00:05:02.31 bitrate= 534.1kbits/s speed=1.01x    frame= 4550 fps= 15 q=-1.0 size=   19712kB time=00:05:02.83 bitrate= 533.2kbits/s speed=1.01x    frame= 4558 fps= 15 q=-1.0 size=   19968kB time=00:05:03.35 bitrate= 539.2kbits/s speed=1.01x    frame= 4566 fps= 15 q=-1.0 size=   19968kB time=00:05:03.91 bitrate= 538.2kbits/s speed=1.01x    frame= 4574 fps= 15 q=-1.0 size=   19968kB time=00:05:04.43 bitrate= 537.3kbits/s speed=1.01x    frame= 4582 fps= 15 q=-1.0 size=   19968kB time=00:05:04.95 bitrate= 536.4kbits/s speed=1.01x    frame= 4590 fps= 15 q=-1.0 size=   19968kB time=00:05:05.51 bitrate= 535.4kbits/s speed=1.01x    frame= 4598 fps= 15 q=-1.0 size=   19968kB time=00:05:06.03 bitrate= 534.5kbits/s speed=1.01x    frame= 4606 fps= 15 q=-1.0 size=   19968kB time=00:05:06.55 bitrate= 533.6kbits/s speed=1.01x    frame= 4614 fps= 15 q=-1.0 size=   19968kB time=00:05:07.11 bitrate= 532.6kbits/s speed=1.01x    frame= 4622 fps= 15 q=-1.0 size=   20224kB time=00:05:07.63 bitrate= 538.5kbits/s speed=1.01x    frame= 4630 fps= 15 q=-1.0 size=   20224kB time=00:05:08.15 bitrate= 537.6kbits/s speed=1.01x    frame= 4638 fps= 15 q=-1.0 size=   20224kB time=00:05:08.71 bitrate= 536.7kbits/s speed=1.01x    frame= 4646 fps= 15 q=-1.0 size=   20224kB time=00:05:09.23 bitrate= 535.8kbits/s speed=1.01x    frame= 4654 fps= 15 q=-1.0 size=   20224kB time=00:05:09.75 bitrate= 534.9kbits/s speed=1.01x    frame= 4662 fps= 15 q=-1.0 size=   20224kB time=00:05:10.31 bitrate= 533.9kbits/s speed=1.01x    frame= 4670 fps= 15 q=-1.0 size=   20224kB time=00:05:10.83 bitrate= 533.0kbits/s speed=1.01x    frame= 4678 fps= 15 q=-1.0 size=   20224kB time=00:05:11.35 bitrate= 532.1kbits/s speed=1.01x    frame= 4686 fps= 15 q=-1.0 size=   20480kB time=00:05:11.91 bitrate= 537.9kbits/s speed=1.01x    frame= 4694 fps= 15 q=-1.0 size=   20480kB time=00:05:12.43 bitrate= 537.0kbits/s speed=1.01x    frame= 4702 fps= 15 q=-1.0 size=   20480kB time=00:05:12.95 bitrate= 536.1kbits/s speed=1.01x    frame= 4710 fps= 15 q=-1.0 size=   20480kB time=00:05:13.51 bitrate= 535.1kbits/s speed=1.01x    frame= 4718 fps= 15 q=-1.0 size=   20480kB time=00:05:14.03 bitrate= 534.2kbits/s speed=1.01x    frame= 4726 fps= 15 q=-1.0 size=   20480kB time=00:05:14.55 bitrate= 533.4kbits/s speed=1.01x    frame= 4734 fps= 15 q=-1.0 size=   20480kB time=00:05:15.11 bitrate= 532.4kbits/s speed=1.01x    frame= 4742 fps= 15 q=-1.0 size=   20480kB time=00:05:15.63 bitrate= 531.5kbits/s speed=1.01x    frame= 4750 fps= 15 q=-1.0 size=   20736kB time=00:05:16.15 bitrate= 537.3kbits/s speed=1.01x    frame= 4758 fps= 15 q=-1.0 size=   20736kB time=00:05:16.71 bitrate= 536.3kbits/s speed=1.01x    frame= 4766 fps= 15 q=-1.0 size=   20736kB time=00:05:17.23 bitrate= 535.5kbits/s speed=1.01x    frame= 4774 fps= 15 q=-1.0 size=   20736kB time=00:05:17.75 bitrate= 534.6kbits/s speed=1.01x    frame= 4782 fps= 15 q=-1.0 size=   20736kB time=00:05:18.31 bitrate= 533.7kbits/s speed=1.01x    frame= 4790 fps= 15 q=-1.0 size=   20736kB time=00:05:18.83 bitrate= 532.8kbits/s speed=1.01x    frame= 4798 fps= 15 q=-1.0 size=   20736kB time=00:05:19.35 bitrate= 531.9kbits/s speed=1.01x    frame= 4806 fps= 15 q=-1.0 size=   20736kB time=00:05:19.91 bitrate= 531.0kbits/s speed=1.01x    frame= 4814 fps= 15 q=-1.0 size=   20736kB time=00:05:20.43 bitrate= 530.1kbits/s speed=1.01x    frame= 4822 fps= 15 q=-1.0 size=   20992kB time=00:05:20.95 bitrate= 535.8kbits/s speed=1.01x    frame= 4830 fps= 15 q=-1.0 size=   20992kB time=00:05:21.51 bitrate= 534.9kbits/s speed=1.01x    frame= 4838 fps= 15 q=-1.0 size=   20992kB time=00:05:22.03 bitrate= 534.0kbits/s speed=1.01x    frame= 4846 fps= 15 q=-1.0 size=   20992kB time=00:05:22.55 bitrate= 533.1kbits/s speed=1.01x    frame= 4854 fps= 15 q=-1.0 size=   20992kB time=00:05:23.11 bitrate= 532.2kbits/s speed=1.01x    frame= 4862 fps= 15 q=-1.0 size=   20992kB time=00:05:23.63 bitrate= 531.4kbits/s speed=1.01x    frame= 4870 fps= 15 q=-1.0 size=   20992kB time=00:05:24.15 bitrate= 530.5kbits/s speed=1.01x    frame= 4878 fps= 15 q=-1.0 size=   20992kB time=00:05:24.71 bitrate= 529.6kbits/s speed=1.01x    frame= 4886 fps= 15 q=-1.0 size=   20992kB time=00:05:25.23 bitrate= 528.7kbits/s speed=1.01x    frame= 4894 fps= 15 q=-1.0 size=   21248kB time=00:05:25.75 bitrate= 534.3kbits/s speed=1.01x    frame= 4902 fps= 15 q=-1.0 size=   21248kB time=00:05:26.31 bitrate= 533.4kbits/s speed=1.01x    frame= 4910 fps= 15 q=-1.0 size=   21248kB time=00:05:26.83 bitrate= 532.6kbits/s speed=1.01x    frame= 4918 fps= 15 q=-1.0 size=   21248kB time=00:05:27.35 bitrate= 531.7kbits/s speed=1.01x    frame= 4926 fps= 15 q=-1.0 size=   21248kB time=00:05:27.91 bitrate= 530.8kbits/s speed=1.01x    frame= 4934 fps= 15 q=-1.0 size=   21248kB time=00:05:28.43 bitrate= 530.0kbits/s speed=1.01x    frame= 4942 fps= 15 q=-1.0 size=   21248kB time=00:05:28.95 bitrate= 529.1kbits/s speed=1.01x    frame= 4950 fps= 15 q=-1.0 size=   21248kB time=00:05:29.51 bitrate= 528.2kbits/s speed=1.01x    frame= 4958 fps= 15 q=-1.0 size=   21504kB time=00:05:30.03 bitrate= 533.8kbits/s speed=1.01x    frame= 4966 fps= 15 q=-1.0 size=   21504kB time=00:05:30.55 bitrate= 532.9kbits/s speed=1.01x    frame= 4974 fps= 15 q=-1.0 size=   21504kB time=00:05:31.11 bitrate= 532.0kbits/s speed=1.01x    frame= 4982 fps= 15 q=-1.0 size=   21504kB time=00:05:31.63 bitrate= 531.2kbits/s speed=1.01x    frame= 4990 fps= 15 q=-1.0 size=   21504kB time=00:05:32.15 bitrate= 530.4kbits/s speed=1.01x    frame= 4998 fps= 15 q=-1.0 size=   21504kB time=00:05:32.71 bitrate= 529.5kbits/s speed=1.01x    frame= 5006 fps= 15 q=-1.0 size=   21504kB time=00:05:33.23 bitrate= 528.6kbits/s speed=1.01x    